Coordinates
version=1
nRows=17
nColumns=24
inDegrees=yes

Units are S.I. units (second, meters, Newtons, ...)
Angles are in degrees.

endheader
time	pelvis_tilt	pelvis_list	pelvis_rotation	pelvis_tx	pelvis_ty	pelvis_tz	hip_flexion_r	hip_adduction_r	hip_rotation_r	knee_angle_r	ankle_angle_r	subtalar_angle_r	mtp_angle_r	hip_flexion_l	hip_adduction_l	hip_rotation_l	knee_angle_l	ankle_angle_l	subtalar_angle_l	mtp_angle_l	lumbar_extension	lumbar_bending	lumbar_rotation
      0.50400000	     -0.45381607	      1.57206626	     11.24059391	     -0.86315954	      0.88906541	      0.29552994	     27.10129629	     -2.70388743	    -13.59775048	     -6.59859243	      6.78682103	      4.40708140	      6.32912166	    -17.02903339	      2.72382515	      6.32744575	     -8.73562889	     18.30565242	      1.47803084	      5.23126247	     -6.80987909	     -2.36662122	    -11.12545625
      0.50816667	     -0.50151145	      1.52796550	     11.26558928	     -0.85708759	      0.88804649	      0.29579383	     27.25108592	     -2.55134970	    -13.38167472	     -7.19609542	      6.73482539	      4.44685228	      6.32006015	    -17.02013681	      2.59407281	      6.21522613	     -9.48951645	     18.44234899	      1.74245300	      5.32644053	     -6.71949648	     -2.27369355	    -11.06105527
      0.51233333	     -0.53128166	      1.46447471	     11.28846482	     -0.85095558	      0.88708010	      0.29607485	     27.37284990	     -2.37135066	    -13.14749430	     -7.83569548	      6.63851300	      4.43568871	      6.33487562	    -16.99390286	      2.43325753	      6.01508441	    -10.31690940	     18.59786792	      2.10471190	      5.44775649	     -6.64065290	     -2.17534073	    -11.00833844
      0.51650000	     -0.55060820	      1.39135790	     11.29467057	     -0.84475697	      0.88616211	      0.29637391	     27.47944812	     -2.17145095	    -12.90582654	     -8.51517333	      6.45910721	      4.33878841	      6.37279387	    -16.95586089	      2.25764138	      5.74471207	    -11.19407255	     18.68486462	      2.56023357	      5.62106800	     -6.55507273	     -2.05440297	    -10.92449625
      0.52066667	     -0.56473079	      1.30988908	     11.30767050	     -0.83852399	      0.88529629	      0.29666704	     27.57232397	     -1.96284462	    -12.65148203	     -9.22408724	      6.21097117	      4.16345810	      6.43324558	    -16.91134754	      2.06727561	      5.49331406	    -12.08786237	     18.71951647	      2.99589876	      5.84333717	     -6.47717887	     -1.92278565	    -10.84175264
      0.52483333	     -0.57149704	      1.22928007	     11.29783805	     -0.83226171	      0.88447243	      0.29698967	     27.65691186	     -1.74221093	    -12.37285837	     -9.96041790	      5.91218302	      3.92887680	      6.50841023	    -16.85603547	      1.88466202	      5.25561442	    -13.02986027	     18.70295015	      3.37596171	      6.09182350	     -6.39845341	     -1.78204881	    -10.74003635
      0.52900000	     -0.58674062	      1.13760729	     11.29136612	     -0.82593779	      0.88368032	      0.29730360	     27.74189405	     -1.51202368	    -12.07468327	    -10.71215572	      5.54644197	      3.62825177	      6.59552528	    -16.77510759	      1.68649149	      5.00259474	    -14.00016383	     18.62471304	      3.75729281	      6.37490325	     -6.30246886	     -1.63812779	    -10.62881587
      0.53316667	     -0.58667040	      1.04046859	     11.27397599	     -0.81958969	      0.88295108	      0.29764514	     27.80842231	     -1.26557644	    -11.75887240	    -11.47728909	      5.13043147	      3.24852736	      6.70066580	    -16.68627074	      1.47811557	      4.74014774	    -15.01423507	     18.49999706	      4.15249001	      6.71646296	     -6.22158087	     -1.47961580	    -10.50084032
      0.53733333	     -0.59073037	      0.93653283	     11.25318551	     -0.81320052	      0.88226300	      0.29798057	     27.87439049	     -1.01352527	    -11.44120277	    -12.24833433	      4.66403866	      2.83517210	      6.80938214	    -16.57304319	      1.26470076	      4.49805416	    -16.07105449	     18.30854334	      4.49692509	      7.08094682	     -6.12423415	     -1.31334144	    -10.36641664
      0.54150000	     -0.52172290	      0.82341476	     11.21744835	     -0.80676744	      0.88170782	      0.29833824	     27.86167518	     -0.73486805	    -11.14336042	    -13.02884619	      4.17524406	      2.39813316	      8.60862215	    -16.50993693	      1.01233214	      4.13547290	    -17.16087872	     18.02350478	      4.90327322	     13.12450508	     -6.11757894	     -1.10931397	    -10.32555515
      0.54566667	     -0.55995472	      0.73619703	     11.18340556	     -0.80036175	      0.88108241	      0.29867156	     27.97134877	     -0.50606045	    -10.80197612	    -13.83833845	      3.64882696	      1.91362707	      8.59489517	    -16.32665973	      0.83963506	      4.00187063	    -18.27617285	     17.63185155	      5.04636924	     13.18067126	     -5.96803426	     -0.96075376	    -10.09876596
      0.54983333	     -0.56979073	      0.63804866	     11.13118458	     -0.79393407	      0.88051593	      0.29906274	     28.05498928	     -0.24747384	    -10.41915006	    -14.66092563	      3.13931084	      1.33467654	      8.59170744	    -16.13111995	      0.63676008	      3.76394278	    -19.46667294	     17.28099310	      5.35748089	     13.30375448	     -5.86454313	     -0.79957942	     -9.91284328
      0.55400000	     -0.50181650	      0.48487438	     11.07887976	     -0.78743026	      0.88010358	      0.29947461	     28.03427409	      0.08483140	    -10.07536732	    -15.43324942	      2.60035156	      0.68859123	      8.60950391	    -15.97250199	      0.33868055	      3.42532313	    -20.73344106	     16.94451454	      5.81039498	     13.68533582	     -5.83458149	     -0.54007354	     -9.69468079
      0.55816667	     -0.54320451	      0.41511891	     11.00904647	     -0.78099259	      0.87960342	      0.29986634	     28.16688896	      0.30265721	     -9.69776563	    -16.31289323	      2.16907141	      0.21540513	      8.61536278	    -15.70094616	      0.18631066	      3.26873827	    -21.99300346	     16.36197489	      5.96283339	     13.87523248	     -5.69523174	     -0.42088600	     -9.55815716
      0.56233333	     -0.50441721	      0.27257419	     10.95122319	     -0.77450757	      0.87924292	      0.30031056	     28.18529155	      0.61685263	     -9.33995447	    -17.11662878	      1.69902981	     -0.43312365	      8.87356730	    -15.42747665	     -0.10606310	      2.91858847	    -23.38873611	     15.84629177	      6.32975434	     18.68272123	     -5.62584122	     -0.19560918	     -9.41740356
      0.56650000	     -0.51607439	      0.18413011	     10.87547834	     -0.76806502	      0.87886830	      0.30073315	     28.29509157	      0.85862847	     -8.98194007	    -18.02579797	      1.34272889	     -0.97869865	      8.85936264	    -15.10791895	     -0.29370106	      2.74157287	    -24.77574555	     15.23545819	      6.49865804	     18.76248367	     -5.52365210	     -0.04688417	     -9.15062915
      0.57066667	     -0.52595250	      0.09007709	     10.79655615	     -0.76162155	      0.87854604	      0.30118192	     28.39340591	      1.10911134	     -8.61972336	    -18.92070712	      1.05318660	     -1.49072555	      8.84187682	    -14.74172736	     -0.49831261	      2.53484865	    -26.23679044	     14.53959467	      6.71535185	     18.88582112	     -5.41830225	      0.10461685	     -8.96380164
